<?xml version="1.0" encoding="UTF-8" standalone="no"?>
<!-- Created with Inkscape (http://www.inkscape.org/) -->

<svg
   width="141.30867mm"
   height="158.58066mm"
   viewBox="0 0 141.30867 158.58066"
   version="1.1"
   id="svg5"
   xml:space="preserve"
   inkscape:version="1.2.2 (b0a84865, 2022-12-01)"
   sodipodi:docname="mickey.svg"
   xmlns:inkscape="http://www.inkscape.org/namespaces/inkscape"
   xmlns:sodipodi="http://sodipodi.sourceforge.net/DTD/sodipodi-0.dtd"
   xmlns:xlink="http://www.w3.org/1999/xlink"
   xmlns="http://www.w3.org/2000/svg"
   xmlns:svg="http://www.w3.org/2000/svg"><sodipodi:namedview
     id="namedview7"
     pagecolor="#ffffff"
     bordercolor="#000000"
     borderopacity="0.25"
     inkscape:showpageshadow="2"
     inkscape:pageopacity="0.0"
     inkscape:pagecheckerboard="0"
     inkscape:deskcolor="#d1d1d1"
     inkscape:document-units="mm"
     showgrid="false"
     inkscape:zoom="0.58946643"
     inkscape:cx="727.77682"
     inkscape:cy="402.90675"
     inkscape:window-width="1440"
     inkscape:window-height="785"
     inkscape:window-x="0"
     inkscape:window-y="25"
     inkscape:window-maximized="1"
     inkscape:current-layer="layer1" /><defs
     id="defs2"><linearGradient
       inkscape:collect="always"
       id="linearGradient22493"><stop
         style="stop-color:#fdda68;stop-opacity:1;"
         offset="0.28716215"
         id="stop22489" /><stop
         style="stop-color:#e09b11;stop-opacity:1;"
         offset="1"
         id="stop22491" /></linearGradient><linearGradient
       inkscape:collect="always"
       id="linearGradient22471"><stop
         style="stop-color:#dc761b;stop-opacity:1;"
         offset="0"
         id="stop22467" /><stop
         style="stop-color:#dc761b;stop-opacity:0;"
         offset="1"
         id="stop22469" /></linearGradient><linearGradient
       inkscape:collect="always"
       id="linearGradient15158"><stop
         style="stop-color:#f1b893;stop-opacity:1;"
         offset="0"
         id="stop15154" /><stop
         style="stop-color:#f1b893;stop-opacity:0;"
         offset="1"
         id="stop15156" /></linearGradient><linearGradient
       inkscape:collect="always"
       id="linearGradient10911"><stop
         style="stop-color:#f6c09b;stop-opacity:0;"
         offset="0.2771278"
         id="stop10915" /><stop
         style="stop-color:#f6c09b;stop-opacity:1;"
         offset="1"
         id="stop10907" /><stop
         style="stop-color:#f6c09b;stop-opacity:0;"
         offset="1"
         id="stop10909" /></linearGradient><linearGradient
       inkscape:collect="always"
       xlink:href="#linearGradient10911"
       id="linearGradient10913"
       x1="-75.325165"
       y1="208.41631"
       x2="-64.776329"
       y2="198.32063"
       gradientUnits="userSpaceOnUse" /><filter
       inkscape:collect="always"
       style="color-interpolation-filters:sRGB"
       id="filter11045"
       x="-0.14302721"
       y="-0.14302721"
       width="1.2860544"
       height="1.2860544"><feGaussianBlur
         inkscape:collect="always"
         stdDeviation="0.89151031"
         id="feGaussianBlur11047" /></filter><linearGradient
       inkscape:collect="always"
       xlink:href="#linearGradient15158"
       id="linearGradient15160"
       x1="-112.3441"
       y1="201.32585"
       x2="-106.18818"
       y2="210.87872"
       gradientUnits="userSpaceOnUse"
       gradientTransform="matrix(1.0013333,-0.24006277,0.22450071,0.93642189,-45.742931,-13.476766)" /><filter
       inkscape:collect="always"
       style="color-interpolation-filters:sRGB"
       id="filter15166"
       x="-0.039984883"
       y="-0.039984883"
       width="1.0799698"
       height="1.0799698"><feGaussianBlur
         inkscape:collect="always"
         stdDeviation="0.24923184"
         id="feGaussianBlur15168" /></filter><linearGradient
       inkscape:collect="always"
       xlink:href="#linearGradient22471"
       id="linearGradient22473"
       x1="-122.53982"
       y1="251.32607"
       x2="-122.32922"
       y2="246.34187"
       gradientUnits="userSpaceOnUse" /><radialGradient
       inkscape:collect="always"
       xlink:href="#linearGradient22493"
       id="radialGradient22495"
       cx="-48.167927"
       cy="174.4204"
       fx="-48.167927"
       fy="174.4204"
       r="26.67359"
       gradientTransform="matrix(1,0,0,0.5803945,0,73.18776)"
       gradientUnits="userSpaceOnUse" /></defs><g
     inkscape:label="Layer 1"
     inkscape:groupmode="layer"
     id="layer1"
     transform="translate(154.97214,-151.01051)"><g
       id="g27707"><path
         style="fill:#fcf6de;fill-opacity:1;stroke:none;stroke-width:0.7;stroke-linecap:round;stroke-dasharray:none;stroke-opacity:1"
         d="m -106.84938,199.21697 c -15.44318,-0.41155 -9.77982,22.75417 5.69508,24.59239 8.425786,4.99514 16.056206,5.31165 22.003715,-4.27131 9.813159,-2.73396 18.828662,-5.96528 16.43807,-16.30863 -1.343177,-6.41342 -6.445727,-7.51459 -11.907893,-6.42133 -0.278093,-5.18092 -17.42255,-18.59979 -20.062211,-12.73485 -16.284691,-5.7833 -16.127881,10.31649 -12.166761,15.14373 z"
         id="path19591"
         sodipodi:nodetypes="ccccccc" /><circle
         style="mix-blend-mode:normal;fill:url(#linearGradient15160);fill-opacity:1;stroke-width:0.600001;stroke-linecap:round;paint-order:markers fill stroke;filter:url(#filter15166)"
         id="path4739-7"
         cx="-108.04862"
         cy="206.75789"
         r="7.4797821"
         transform="matrix(0.94438815,0.24210503,-0.22641058,1.0098517,40.147798,24.684127)" /><path
         style="fill:#97501a;fill-opacity:1;stroke:#000000;stroke-width:0.5;stroke-linecap:round;stroke-dasharray:none;stroke-opacity:1"
         d="m -92.519536,289.24273 0.87853,-0.43926 c -3.903784,-5.37838 15.204314,-4.46001 17.204537,-2.70881 12.956377,-7.72472 28.108146,-0.41399 23.354244,12.153 0.781695,0.012 1.856889,3.61291 0.732107,4.02659 l -37.996402,0.58569 z"
         id="path7347"
         sodipodi:nodetypes="ccccccc" /><path
         style="fill:#97501a;fill-opacity:1;stroke:#000000;stroke-width:0.5;stroke-linecap:round;stroke-dasharray:none;stroke-opacity:1"
         d="m -102.16499,284.78997 c -2.73343,-3.35828 -21.43183,-4.39868 -16.95694,1.24351 -4.61706,4.17956 -4.7279,7.56391 -4.29575,10.85243 -1.27599,0.23981 -1.43257,3.41569 -0.90437,3.73053 11.90643,4.70512 21.02481,0.53287 35.948699,2.82616 0.907335,-0.19114 0.256926,-3.64882 -0.728922,-4.11851 0.568269,-6.67421 -2.275037,-12.20189 -13.062717,-14.53412 z"
         id="path6619"
         sodipodi:nodetypes="ccccccc" /><path
         style="fill:#000000;fill-opacity:1;stroke:#000000;stroke-width:0.5;stroke-linecap:round;stroke-dasharray:none;stroke-opacity:1"
         d="m -108.86048,264.57011 c -3.07622,6.32446 -4.30212,12.80312 -5.4043,19.29208 2.30918,2.25098 5.47308,2.0756 7.60372,1.00545 0.76131,-4.48153 1.62722,-9.18028 4.52453,-18.09811 z"
         id="path5114"
         sodipodi:nodetypes="ccccc" /><path
         style="fill:#000000;fill-opacity:1;stroke:#000000;stroke-width:0.5;stroke-linecap:round;stroke-dasharray:none;stroke-opacity:1"
         d="m -90.259648,267.77498 c 6.583442,7.93286 4.279831,13.59668 3.330554,19.60629 2.755961,0.94032 6.605856,1.02051 9.111898,-0.37704 0.570524,-8.21055 -0.990462,-15.12367 -4.273166,-20.98878 z"
         id="path5116"
         sodipodi:nodetypes="ccccc" /><path
         style="fill:#d50b23;fill-opacity:1;stroke:#000000;stroke-width:0.5;stroke-linecap:round;stroke-dasharray:none;stroke-opacity:1"
         d="m -102.96147,231.58943 c -8.94586,7.76225 -13.4339,16.00789 -8.51259,25.27381 l -1.71571,5.80704 c 6.02447,4.05701 12.2496,5.60563 18.608913,5.47709 6.454142,0.19409 12.659491,-0.45773 18.278972,-3.10149 l -1.385771,-5.01516 c 5.395898,-5.92288 5.861411,-11.93244 4.753988,-18.18882 -10.711445,5.71344 -20.65629,3.12814 -30.027802,-10.25247 z"
         id="path5112"
         sodipodi:nodetypes="cccccccc" /><path
         style="fill:#000000;fill-opacity:1;stroke:none;stroke-width:0.5;stroke-linecap:round;stroke-dasharray:none;stroke-opacity:1"
         d="m -94.619145,181.91663 c 13.792138,-18.33424 -7.452875,-25.1004 -18.587755,-21.36758 -6.72141,2.25326 -18.70457,18.70691 1.13784,26.55471 l -6.4818,5.05089 c -7.47847,-12.86159 -25.54478,-4.81668 -25.25495,8.65224 0.29035,13.49305 17.99356,21.90421 26.07761,8.08222 3.96696,11.14504 9.7144,13.58861 15.096,14.4521 -14.85968,-3.73978 -17.29497,-26.17897 -3.6488,-23.60987 -7.43417,-12.36931 4.43583,-20.20588 11.804934,-15.45372 0.09111,-4.59178 16.776505,3.78969 19.531796,12.09111 l 1.00163,-0.21464 c -2.302564,-4.24848 -7.756619,-12.41843 -20.676505,-14.23746 z"
         id="path378"
         sodipodi:nodetypes="csccsccccccc" /><path
         style="fill:#000000;fill-opacity:1;stroke:#000000;stroke-width:0.5;stroke-linecap:round;stroke-dasharray:none;stroke-opacity:1"
         d="m -92.651137,195.10747 -4.618193,-0.16896 c -2.28767,-3.52881 -1.76271,-5.53623 -0.67584,-5.68826 4.190507,-0.58617 10.152891,7.62892 9.85591,11.15125 -1.088843,-0.0463 -2.177687,0.29143 -3.26653,0.8448 l -3.379169,-2.98494 z"
         id="path1300"
         sodipodi:nodetypes="ccscccc" /><path
         style="fill:#000000;fill-opacity:1;stroke:#000000;stroke-width:0.5;stroke-linecap:round;stroke-dasharray:none;stroke-opacity:1"
         d="m -82.569951,193.02365 -4.843476,-1.01375 c -1.806467,-2.5451 -1.458674,-3.73848 -0.506876,-4.16764 1.259491,-0.56789 7.526557,3.61553 8.560561,8.50424 0.562721,2.66051 -0.642524,2.91153 -1.914862,2.19646 -1.220255,-0.33186 -2.44051,-1.68249 -3.660765,-3.04125 z"
         id="path1302"
         sodipodi:nodetypes="ccssccc" /><path
         style="fill:url(#radialGradient22495);fill-opacity:1;stroke:#000000;stroke-width:0.6;stroke-linecap:round;stroke-dasharray:none;stroke-opacity:1"
         d="m -63.96193,173.25509 c -2.485589,-1.50224 -7.45223,0.7355 -9.238471,-1.38577 -6.156398,-7.31109 10.421074,-12.31091 15.903367,-4.61923 2.092696,-0.81457 4.264293,-1.07682 6.532917,-0.65989 1.626976,-3.78198 17.974123,-10.87175 22.898206,-5.27913 4.669194,-0.0568 8.578676,4.87133 4.09132,6.33495 2.636277,4.09254 -1.192039,5.75388 -3.101485,6.20297 l -9.700392,3.76138 c -3.581064,5.79162 -7.854367,10.22886 -15.44144,8.18264 1.315867,3.49664 -1.859309,4.41701 -3.629401,3.43144 -3.049125,-1.59769 -6.227132,-2.98057 -8.776544,-5.41111 -2.071357,-1.79987 -0.825811,-4.19956 1.055824,-4.28928 -1.218946,-1.38516 -2.115419,-4.11601 -0.593901,-6.26897 z"
         id="path2142"
         sodipodi:nodetypes="csccccccccccc" /><path
         style="fill:#000000;fill-opacity:1;stroke:none;stroke-width:0.5;stroke-linecap:round;stroke-dasharray:none;stroke-opacity:1"
         d="m -59.667907,189.97604 2.835955,-3.99232 c -0.03687,-2.3166 -4.544983,-3.40545 -6.364099,-2.3091 -2.985621,4.03588 -5.668807,8.22299 -8.053687,12.55924 l 3.210211,0.45056 7.129852,-5.33763 -4.144921,1.67686 0.16896,-1.29535 c 1.427598,-1.41934 3.18991,-2.28364 5.217729,-1.75226 z"
         id="path1358"
         sodipodi:nodetypes="ccccccccc" /><circle
         style="fill:url(#linearGradient10913);fill-opacity:1;stroke-width:0.600001;stroke-linecap:round;paint-order:markers fill stroke;filter:url(#filter11045)"
         id="path4739"
         cx="-69.511658"
         cy="204.00557"
         r="7.4797821" /><ellipse
         style="fill:#000000;fill-opacity:1;stroke:none;stroke-width:0.5;stroke-linecap:round;stroke-dasharray:none;stroke-opacity:1"
         id="path1412"
         transform="rotate(-53.756441)"
         ry="4.561255"
         rx="7.8783274"
         cy="65.573921"
         cx="-197.05818" /><path
         style="fill:#1a1a1a;fill-opacity:1;stroke:#000000;stroke-width:0.4;stroke-linecap:round;stroke-dasharray:none;stroke-opacity:1;paint-order:markers stroke fill;stroke-linejoin:round"
         d="m -103.68976,204.17491 c -4.02694,-1.17571 -7.29464,-0.52485 -6.70201,5.12507 0.78002,-3.5598 2.71381,-5.87815 6.70201,-5.12507 z"
         id="path2140"
         sodipodi:nodetypes="ccc" /><path
         style="fill:#000000;fill-opacity:1;stroke:#000000;stroke-width:0.3;stroke-linecap:round;stroke-linejoin:round;stroke-dasharray:none;stroke-opacity:1"
         d="m -106.12894,206.05166 c 4.75159,17.73881 14.680575,24.01942 23.546661,13.62804 -8.943764,-1.03605 -17.336471,-3.73128 -23.546661,-13.62804 z"
         id="path2144"
         sodipodi:nodetypes="ccc" /><path
         style="fill:#cb1323;fill-opacity:1;stroke:#000000;stroke-width:0.5;stroke-linecap:round;stroke-dasharray:none;stroke-opacity:1"
         d="m -90.22558,220.76722 c -1.324894,-3.72829 6.158254,-1.00661 6.381279,-0.26396 -3.488084,3.85016 -11.441019,6.63403 -15.553759,-0.85785 0.88377,-1.06917 4.08187,-3.34786 9.17248,1.12181 z"
         id="path2146"
         sodipodi:nodetypes="cccc" /><path
         style="fill:#1a1a1a;fill-opacity:1;stroke:#000000;stroke-width:0.4;stroke-linecap:round;stroke-dasharray:none;stroke-opacity:1"
         d="m -92.469207,202.88418 c 2.221371,-1.57684 2.902363,-2.15757 6.136984,-1.71571 -2.627554,-1.98328 -5.742612,0.17756 -6.136984,1.71571 z"
         id="path3630"
         sodipodi:nodetypes="ccc" /><path
         style="fill:none;fill-opacity:1;stroke:#000000;stroke-width:0.4;stroke-linecap:round;stroke-dasharray:none;stroke-opacity:1;stroke-linejoin:round"
         d="m -92.733163,182.95549 c -1.609576,0.98335 0.24912,2.53802 1.055825,3.5634 -9.701612,-8.42459 -25.873992,4.14881 -7.258792,18.7409 -2.52811,-1.97322 -6.76529,-5.38724 -7.68341,-5.79771"
         id="path3632"
         sodipodi:nodetypes="cccc" /><ellipse
         style="fill:#ffffff;fill-opacity:1;stroke:#000000;stroke-width:0.7;stroke-linecap:round;stroke-dasharray:none;stroke-opacity:1"
         id="path5088"
         cx="-0.44430447"
         cy="269.00153"
         rx="3.2664587"
         ry="5.6090703"
         transform="rotate(19.868706)" /><ellipse
         style="fill:#ffffff;fill-opacity:1;stroke:#000000;stroke-width:0.7;stroke-linecap:round;stroke-dasharray:none;stroke-opacity:1"
         id="path5088-7"
         cx="-18.803965"
         cy="263.22678"
         rx="2.810955"
         ry="5.6090703"
         transform="rotate(13.00466)" /><path
         style="fill:#f3bf4b;fill-opacity:1;stroke:#000000;stroke-width:0.5;stroke-linecap:round;stroke-dasharray:none;stroke-opacity:1"
         d="m -121.07608,235.80121 c -1.13538,-0.40251 -5.63028,-1.08988 -6.97755,3.03569 -4.28768,0.90508 -4.28027,4.83503 -2.44668,5.84484 -1.59496,1.15203 -2.5485,4.71468 0.86087,5.6636 6.11669,0.889 12.23338,1.13908 18.35007,1.31395 1.74393,-0.38995 3.47641,-0.71116 5.57298,-3.21692 0.72353,-0.42054 1.47524,-0.58738 2.08421,-2.0389 0.78893,-0.68699 1.46818,-1.61161 1.5405,-3.85125 -0.29875,-6.14067 -4.00038,-8.80112 -9.60547,-9.51485 -5.07971,-1.23419 -7.79276,0.14309 -9.37893,2.76384 z"
         id="path5118"
         sodipodi:nodetypes="cccccccccc" /><path
         id="path5118-8"
         style="opacity:0.515873;fill:url(#linearGradient22473);fill-opacity:1;stroke:none;stroke-width:0.499055;stroke-linecap:round;stroke-dasharray:none;stroke-opacity:1"
         d="m -102.72014,245.23403 c -1.7544,1.13046 -3.32904,1.38222 -4.91132,1.6707 -7.48081,-0.17438 -14.96198,-0.42348 -22.44279,-1.31 -0.37437,-0.085 -0.70504,-0.19136 -0.99667,-0.31471 -1.0578,1.51405 -1.2428,4.11417 1.58459,4.90409 6.09359,0.889 12.18692,1.13875 18.28051,1.31362 1.73735,-0.38995 3.46362,-0.7111 5.55228,-3.21686 0.72079,-0.42054 1.46957,-0.58712 2.07624,-2.03863 0.31404,-0.27451 0.60961,-0.5891 0.85716,-1.00821 z" /><path
         style="fill:none;fill-opacity:1;stroke:#000000;stroke-width:0.5;stroke-linecap:round;stroke-dasharray:none;stroke-opacity:1"
         d="m -130.50031,244.77236 c 3.38362,-0.93919 6.94879,-0.2971 9.87032,0.71557"
         id="path5846"
         sodipodi:nodetypes="cc" /><path
         style="fill:none;fill-opacity:1;stroke:#000000;stroke-width:0.5;stroke-linecap:round;stroke-dasharray:none;stroke-opacity:1"
         d="m -127.93613,238.79312 c 2.00708,-0.35733 4.74951,-0.0259 6.67882,0.6328"
         id="path5848"
         sodipodi:nodetypes="cc" /><path
         style="fill:none;fill-opacity:1;stroke:#000000;stroke-width:0.5;stroke-linecap:round;stroke-dasharray:none;stroke-opacity:1"
         d="m -120.89484,237.43233 c -0.87387,3.81005 2.06917,5.05278 3.94187,5.39175"
         id="path5850"
         sodipodi:nodetypes="cc" /><path
         style="fill:none;fill-opacity:1;stroke:#000000;stroke-width:0.5;stroke-linecap:round;stroke-dasharray:none;stroke-opacity:1"
         d="m -121.03077,239.78839 c -1.74785,4.9771 2.84633,8.95189 6.11669,9.10707"
         id="path5852"
         sodipodi:nodetypes="cc" /><path
         style="fill:none;fill-opacity:1;stroke:#000000;stroke-width:0.5;stroke-linecap:round;stroke-dasharray:none;stroke-opacity:1"
         d="m -107.12096,244.31927 c 1.25757,1.17867 1.60772,2.52232 1.5405,3.94186"
         id="path5854"
         sodipodi:nodetypes="cc" /><path
         style="fill:none;fill-opacity:1;stroke:#000000;stroke-width:0.5;stroke-linecap:round;stroke-dasharray:none;stroke-opacity:1"
         d="m -105.7617,242.09914 c 1.6618,0.96521 2.02127,2.53149 2.12952,4.21372"
         id="path5856"
         sodipodi:nodetypes="cc" /><path
         style="fill:none;fill-opacity:1;stroke:#000000;stroke-width:0.5;stroke-linecap:round;stroke-dasharray:none;stroke-opacity:1"
         d="m -104.53836,239.83369 c 1.38746,0.69245 2.25098,1.8612 2.31075,3.76064"
         id="path5858"
         sodipodi:nodetypes="cc" /><path
         style="fill:none;fill-opacity:1;stroke:#000000;stroke-width:0.5;stroke-linecap:round;stroke-dasharray:none;stroke-opacity:1"
         d="m -112.19555,232.90145 c 2.90228,2.54833 3.67772,5.04833 1.26865,7.47595"
         id="path5860"
         sodipodi:nodetypes="cc" /><ellipse
         style="fill:none;fill-opacity:1;stroke:#000000;stroke-width:0.4;stroke-linecap:round;stroke-dasharray:none;stroke-opacity:1"
         id="path7349"
         cx="-51.338463"
         cy="173.78929"
         rx="3.4043014"
         ry="1.9034806" /><path
         style="fill:none;fill-opacity:1;stroke:#000000;stroke-width:0.4;stroke-linecap:round;stroke-dasharray:none;stroke-opacity:1"
         d="m -54.669555,173.42325 c 2.303689,-0.7418 4.455662,-0.57331 6.369339,1.02496"
         id="path7351"
         sodipodi:nodetypes="cc" /><path
         style="fill:none;fill-opacity:1;stroke:#000000;stroke-width:0.4;stroke-linecap:round;stroke-dasharray:none;stroke-opacity:1"
         d="m -60.013942,181.03718 c -0.888186,-1.03326 -2.040376,-1.44121 -3.514119,-1.49854"
         id="path7353"
         sodipodi:nodetypes="cc" /><path
         style="fill:none;fill-opacity:1;stroke:#000000;stroke-width:0.4;stroke-linecap:round;stroke-dasharray:none;stroke-opacity:1"
         d="m -55.621295,183.37992 c 1.48318,0.35072 2.689795,1.16238 3.587329,2.48917"
         id="path7355"
         sodipodi:nodetypes="cc" /><path
         style="fill:none;fill-opacity:1;stroke:#000000;stroke-width:0.4;stroke-linecap:round;stroke-dasharray:none;stroke-opacity:1"
         d="m -48.007373,167.34676 c 1.613201,-0.25045 2.870185,0.38965 4.099803,1.09816"
         id="path7357"
         sodipodi:nodetypes="cc" /><path
         style="fill:none;fill-opacity:1;stroke:#000000;stroke-width:0.4;stroke-linecap:round;stroke-dasharray:none;stroke-opacity:1"
         d="m -40.979137,171.15372 c 1.59785,0.53735 2.522995,1.61286 3.148065,2.92843"
         id="path7359"
         sodipodi:nodetypes="cc" /><path
         style="fill:none;fill-opacity:1;stroke:#000000;stroke-width:0.4;stroke-linecap:round;stroke-dasharray:none;stroke-opacity:1"
         d="m -38.270339,171.15372 c 4.257897,-2.59497 9.019831,-4.03785 14.642161,-3.51412"
         id="path7361"
         sodipodi:nodetypes="cc" /><path
         style="fill:none;fill-opacity:1;stroke:#000000;stroke-width:0.4;stroke-linecap:round;stroke-dasharray:none;stroke-opacity:1"
         d="m -43.614726,166.9807 c 4.495484,-2.67917 10.318886,-4.03042 15.952517,-5.57145"
         id="path7363"
         sodipodi:nodetypes="cc" /><path
         style="fill:none;fill-opacity:1;stroke:#000000;stroke-width:0.5;stroke-linecap:round;stroke-dasharray:none;stroke-opacity:1"
         d="m -104.16005,219.10679 c 1.16908,2.94776 3.13118,5.2549 5.487058,6.53923"
         id="path7365"
         sodipodi:nodetypes="cc" /><path
         style="fill:none;fill-opacity:1;stroke:#000000;stroke-width:0.5;stroke-linecap:round;stroke-dasharray:none;stroke-opacity:1;paint-order:normal"
         d="m -81.903971,203.43968 c 3.283031,-8.32614 18.488356,-11.16695 19.547284,1.53743 0.705272,8.46143 -8.096986,13.60491 -20.855353,14.84719"
         id="path7369"
         sodipodi:nodetypes="csc" /><path
         style="fill:#000000;fill-opacity:1;stroke:none;stroke-width:0.5;stroke-linecap:round;stroke-dasharray:none;stroke-opacity:1"
         d="m -112.19015,256.01018 c -11.79799,13.20072 -36.88693,16.60608 -31.01285,33.53815 4.13388,11.91593 19.52848,10.06706 23.14036,3.50332 -2.57707,3.66965 -16.08075,8.41076 -21.54062,-3.59655 -4.94772,-10.88101 5.69132,-14.73272 29.19261,-29.96158 0.2199,-1.14314 1.09802,-2.73214 0.2205,-3.48334 z"
         id="path7371"
         sodipodi:nodetypes="cscscc" /><path
         style="fill:none;fill-opacity:1;stroke:#000000;stroke-width:0.5;stroke-linecap:round;stroke-dasharray:none;stroke-opacity:1"
         d="m -123.79854,298.10521 c 7.28345,5.79979 22.25506,-0.47859 34.773618,1.26341"
         id="path7373"
         sodipodi:nodetypes="cc" /><path
         style="fill:none;fill-opacity:1;stroke:#000000;stroke-width:0.5;stroke-linecap:round;stroke-dasharray:none;stroke-opacity:1"
         d="m -116.03764,290.70529 c 2.9833,-2.82701 8.33116,-4.91192 14.67952,-5.71538"
         id="path7375"
         sodipodi:nodetypes="cc" /><path
         style="fill:none;fill-opacity:1;stroke:#000000;stroke-width:0.5;stroke-linecap:round;stroke-dasharray:none;stroke-opacity:1"
         d="m -119.16607,285.89234 c 2.30621,1.95838 4.61242,1.94939 6.91863,1.86502"
         id="path7377"
         sodipodi:nodetypes="cc" /><path
         style="fill:none;fill-opacity:1;stroke:#000000;stroke-width:0.5;stroke-linecap:round;stroke-dasharray:none;stroke-opacity:1"
         d="m -91.509327,288.9606 c 2.055256,1.96242 5.412287,1.65407 8.199791,1.68453"
         id="path7379"
         sodipodi:nodetypes="cc" /><path
         style="fill:none;fill-opacity:1;stroke:#000000;stroke-width:0.5;stroke-linecap:round;stroke-dasharray:none;stroke-opacity:1"
         d="m -81.023383,291.96869 c 1.552307,-1.90952 3.28776,-3.80389 6.57244,-5.87089"
         id="path7381"
         sodipodi:nodetypes="cc" /><path
         style="fill:none;fill-opacity:1;stroke:#000000;stroke-width:0.5;stroke-linecap:round;stroke-dasharray:none;stroke-opacity:1"
         d="m -88.122495,300.93283 c 14.275905,1.85026 25.051671,-2.26178 37.034786,-2.69148"
         id="path7383"
         sodipodi:nodetypes="cc" /><path
         style="fill:none;fill-opacity:1;stroke:#000000;stroke-width:0.5;stroke-linecap:round;stroke-dasharray:none;stroke-opacity:1"
         d="m -87.761521,286.49395 c -0.942497,-0.038 -1.232375,0.80433 1.592278,1.11004"
         id="path7385"
         sodipodi:nodetypes="cc" /><path
         style="fill:none;fill-opacity:1;stroke:#000000;stroke-width:0.7;stroke-linecap:round;stroke-dasharray:none;stroke-opacity:1"
         d="m -111.57432,256.82672 c 1.35418,2.72544 3.4034,3.53949 5.38812,4.53093"
         id="path7387"
         sodipodi:nodetypes="cc" /><path
         style="fill:none;fill-opacity:1;stroke:#000000;stroke-width:0.7;stroke-linecap:round;stroke-dasharray:none;stroke-opacity:1"
         d="m -77.776072,259.94939 c -7.054858,6.31919 -16.389221,6.30409 -22.960768,3.91863"
         id="path7389"
         sodipodi:nodetypes="cc" /><path
         style="fill:none;fill-opacity:1;stroke:#000000;stroke-width:0.5;stroke-linecap:round;stroke-dasharray:none;stroke-opacity:1"
         d="m -94.001682,265.21505 0.244914,3.00021"
         id="path7391" /><path
         style="fill:#000000;fill-opacity:1;stroke:none;stroke-width:0.5;stroke-linecap:round;stroke-dasharray:none;stroke-opacity:1"
         d="m -108.04263,221.69107 -14.25364,3.43143 c -3.82581,1.07834 -3.63985,3.49393 -2.77154,6.13698 1.61644,3.03297 3.48795,5.87463 5.80704,8.38061 1.83317,0.61902 5.55508,0.37226 5.87303,-3.43143 l -3.82737,-5.87303 13.72573,-3.23346 c 0.68357,18.16128 22.452545,22.37451 30.750903,14.58358 -1.137505,-6.67478 -3.792802,-12.48226 -7.390775,-17.75106 l 4.120182,-5.29976 -2.901864,0.68219 c -11.253217,15.62989 -19.788096,4.08974 -29.131696,2.37395 z"
         id="path3634"
         sodipodi:nodetypes="cccccccccccc" /></g></g></svg>
